<svg xmlns="http://www.w3.org/2000/svg" xmlns:xlink="http://www.w3.org/1999/xlink" xmlns:lucid="lucid" width="1082" height="162"><g transform="translate(-179 -239)" lucid:page-tab-id="rSOCJxRKKv8k"><g filter="url(#a)"><path d="M200 274c0-7.73 6.27-14 14-14h132c7.73 0 14 6.27 14 14v92c0 7.73-6.27 14-14 14H214c-7.73 0-14-6.27-14-14z" stroke="#000" stroke-width="2" fill="#7ab648"/><use xlink:href="#b" transform="matrix(1,0,0,1,212,272) translate(21.099999999999994 50.4)"/></g><g filter="url(#a)"><path d="M420 274c0-7.73 6.27-14 14-14h132c7.73 0 14 6.27 14 14v92c0 7.73-6.27 14-14 14H434c-7.73 0-14-6.27-14-14z" stroke="#000" stroke-width="2" fill="#7ab648"/><use xlink:href="#c" transform="matrix(1,0,0,1,432,272) translate(19.599999999999994 50.4)"/></g><g filter="url(#a)"><path d="M640 274c0-7.73 6.27-14 14-14h132c7.73 0 14 6.27 14 14v92c0 7.73-6.27 14-14 14H654c-7.73 0-14-6.27-14-14z" stroke="#000" stroke-width="2" fill="#7ab648"/><use xlink:href="#d" transform="matrix(1,0,0,1,652,272) translate(19.049999999999997 50.4)"/></g><g filter="url(#a)"><path d="M860 274c0-7.73 6.27-14 14-14h132c7.73 0 14 6.27 14 14v92c0 7.73-6.27 14-14 14H874c-7.73 0-14-6.27-14-14z" stroke="#000" stroke-width="2" fill="#7ab648"/><use xlink:href="#e" transform="matrix(1,0,0,1,872,272) translate(29.025 50.4)"/></g><g filter="url(#a)"><path d="M1080 274c0-7.73 6.27-14 14-14h132c7.73 0 14 6.27 14 14v92c0 7.73-6.27 14-14 14h-132c-7.73 0-14-6.27-14-14z" stroke="#000" stroke-width="2" fill="#7ab648"/><use xlink:href="#f" transform="matrix(1,0,0,1,1092,272) translate(14.099999999999994 50.4)"/></g><path d="M362 320h38.5" stroke="#000" stroke-width="2" fill="none"/><path d="M362.03 321H361v-2h1.03z"/><path d="M415.76 320l-14.26 4.64v-9.28z" stroke="#000" stroke-width="2"/><path d="M582 320h38.5" stroke="#000" stroke-width="2" fill="none"/><path d="M582.03 321H581v-2h1.03z"/><path d="M635.76 320l-14.26 4.64v-9.28z" stroke="#000" stroke-width="2"/><path d="M802 320h38.5" stroke="#000" stroke-width="2" fill="none"/><path d="M802.03 321H801v-2h1.03z"/><path d="M855.76 320l-14.26 4.64v-9.28z" stroke="#000" stroke-width="2"/><path d="M1022 320h38.5" stroke="#000" stroke-width="2" fill="none"/><path d="M1022.03 321H1021v-2h1.03z"/><path d="M1075.76 320l-14.26 4.64v-9.28z" stroke="#000" stroke-width="2"/><defs><path d="M143 4C61 4 22-44 18-125c-5-107 100-154 193-111 17 8 29 25 37 43l-32 9c-13-25-37-40-76-40-61 0-88 39-88 99 0 61 29 100 91 101 35 0 62-11 79-27v-45h-74v-28h105v86C228-13 192 4 143 4" id="g"/><path d="M114-163C36-179 61-72 57 0H25l-1-190h30c1 12-1 29 2 39 6-27 23-49 58-41v29" id="h"/><path d="M141-36C126-15 110 5 73 4 37 3 15-17 15-53c-1-64 63-63 125-63 3-35-9-54-41-54-24 1-41 7-42 31l-33-3c5-37 33-52 76-52 45 0 72 20 72 64v82c-1 20 7 32 28 27v20c-31 9-61-2-59-35zM48-53c0 20 12 33 32 33 41-3 63-29 60-74-43 2-92-5-92 41" id="i"/><path d="M85-194c31 0 48 13 60 33l-1-100h32l1 261h-30c-2-10 0-23-3-31C134-8 116 4 85 4 32 4 16-35 15-94c0-66 23-100 70-100zm9 24c-40 0-46 34-46 75 0 40 6 74 45 74 42 0 51-32 51-76 0-42-9-74-50-73" id="j"/><path d="M24 0v-261h32V0H24" id="k"/><path d="M100-194c63 0 86 42 84 106H49c0 40 14 67 53 68 26 1 43-12 49-29l28 8c-11 28-37 45-77 45C44 4 14-33 15-96c1-61 26-98 85-98zm52 81c6-60-76-77-97-28-3 7-6 17-6 28h103" id="l"/><path d="M160-131c35 5 61 23 61 61C221 17 115-2 30 0v-248c76 3 177-17 177 60 0 33-19 50-47 57zm-97-11c50-1 110 9 110-42 0-47-63-36-110-37v79zm0 115c55-2 124 14 124-45 0-56-70-42-124-44v89" id="m"/><path d="M84 4C-5 8 30-112 23-190h32v120c0 31 7 50 39 49 72-2 45-101 50-169h31l1 190h-30c-1-10 1-25-2-33-11 22-28 36-60 37" id="n"/><path d="M24-231v-30h32v30H24zM24 0v-190h32V0H24" id="o"/><g id="b"><use transform="matrix(0.05,0,0,0.05,0,0)" xlink:href="#g"/><use transform="matrix(0.05,0,0,0.05,14,0)" xlink:href="#h"/><use transform="matrix(0.05,0,0,0.05,19.95,0)" xlink:href="#i"/><use transform="matrix(0.05,0,0,0.05,29.950000000000003,0)" xlink:href="#j"/><use transform="matrix(0.05,0,0,0.05,39.95,0)" xlink:href="#k"/><use transform="matrix(0.05,0,0,0.05,43.900000000000006,0)" xlink:href="#l"/><use transform="matrix(0.05,0,0,0.05,53.900000000000006,0)" xlink:href="#m"/><use transform="matrix(0.05,0,0,0.05,65.9,0)" xlink:href="#n"/><use transform="matrix(0.05,0,0,0.05,75.9,0)" xlink:href="#o"/><use transform="matrix(0.05,0,0,0.05,79.85000000000001,0)" xlink:href="#k"/><use transform="matrix(0.05,0,0,0.05,83.80000000000001,0)" xlink:href="#j"/></g><filter id="a" filterUnits="objectBoundingBox" x="-.06" y="-.03" width="1.13" height="1.17"><feOffset result="offOut" in="SourceAlpha" dy="6"/><feGaussianBlur result="blurOut" in="offOut" stdDeviation="5"/><feColorMatrix result="colorOut" in="blurOut" values="0 0 0 0 0 0 0 0 0 0 0 0 0 0 0 0 0 0 0.5019607843137255 0"/><feBlend in="SourceGraphic" in2="colorOut"/></filter><path d="M30-248c118-7 216 8 213 122C240-48 200 0 122 0H30v-248zM63-27c89 8 146-16 146-99s-60-101-146-95v194" id="p"/><path d="M100-194c62-1 85 37 85 99 1 63-27 99-86 99S16-35 15-95c0-66 28-99 85-99zM99-20c44 1 53-31 53-75 0-43-8-75-51-75s-53 32-53 75 10 74 51 75" id="q"/><path d="M96-169c-40 0-48 33-48 73s9 75 48 75c24 0 41-14 43-38l32 2c-6 37-31 61-74 61-59 0-76-41-82-99-10-93 101-131 147-64 4 7 5 14 7 22l-32 3c-4-21-16-35-41-35" id="r"/><path d="M143 0L79-87 56-68V0H24v-261h32v163l83-92h37l-77 82L181 0h-38" id="s"/><g id="c"><use transform="matrix(0.05,0,0,0.05,0,0)" xlink:href="#p"/><use transform="matrix(0.05,0,0,0.05,12.950000000000001,0)" xlink:href="#q"/><use transform="matrix(0.05,0,0,0.05,22.950000000000003,0)" xlink:href="#r"/><use transform="matrix(0.05,0,0,0.05,31.950000000000003,0)" xlink:href="#s"/><use transform="matrix(0.05,0,0,0.05,40.95,0)" xlink:href="#l"/><use transform="matrix(0.05,0,0,0.05,50.95,0)" xlink:href="#h"/><use transform="matrix(0.05,0,0,0.05,56.900000000000006,0)" xlink:href="#m"/><use transform="matrix(0.05,0,0,0.05,68.9,0)" xlink:href="#n"/><use transform="matrix(0.05,0,0,0.05,78.9,0)" xlink:href="#o"/><use transform="matrix(0.05,0,0,0.05,82.85000000000001,0)" xlink:href="#k"/><use transform="matrix(0.05,0,0,0.05,86.80000000000001,0)" xlink:href="#j"/></g><path d="M30-248c87 1 191-15 191 75 0 78-77 80-158 76V0H30v-248zm33 125c57 0 124 11 124-50 0-59-68-47-124-48v98" id="t"/><path d="M135-143c-3-34-86-38-87 0 15 53 115 12 119 90S17 21 10-45l28-5c4 36 97 45 98 0-10-56-113-15-118-90-4-57 82-63 122-42 12 7 21 19 24 35" id="u"/><path d="M106-169C34-169 62-67 57 0H25v-261h32l-1 103c12-21 28-36 61-36 89 0 53 116 60 194h-32v-121c2-32-8-49-39-48" id="v"/><g id="d"><use transform="matrix(0.05,0,0,0.05,0,0)" xlink:href="#p"/><use transform="matrix(0.05,0,0,0.05,12.950000000000001,0)" xlink:href="#q"/><use transform="matrix(0.05,0,0,0.05,22.950000000000003,0)" xlink:href="#r"/><use transform="matrix(0.05,0,0,0.05,31.950000000000003,0)" xlink:href="#s"/><use transform="matrix(0.05,0,0,0.05,40.95,0)" xlink:href="#l"/><use transform="matrix(0.05,0,0,0.05,50.95,0)" xlink:href="#h"/><use transform="matrix(0.05,0,0,0.05,56.900000000000006,0)" xlink:href="#t"/><use transform="matrix(0.05,0,0,0.05,68.9,0)" xlink:href="#n"/><use transform="matrix(0.05,0,0,0.05,78.9,0)" xlink:href="#u"/><use transform="matrix(0.05,0,0,0.05,87.9,0)" xlink:href="#v"/></g><path d="M195 0l-74-108L45 0H8l94-129-87-119h37l69 98 67-98h37l-84 118L233 0h-38" id="w"/><path d="M179-190L93 31C79 59 56 82 12 73V49c39 6 53-20 64-50L1-190h34L92-34l54-156h33" id="x"/><path d="M185-189c-5-48-123-54-124 2 14 75 158 14 163 119 3 78-121 87-175 55-17-10-28-26-33-46l33-7c5 56 141 63 141-1 0-78-155-14-162-118-5-82 145-84 179-34 5 7 8 16 11 25" id="y"/><path d="M117-194c89-4 53 116 60 194h-32v-121c0-31-8-49-39-48C34-167 62-67 57 0H25l-1-190h30c1 10-1 24 2 32 11-22 29-35 61-36" id="z"/><g id="e"><use transform="matrix(0.05,0,0,0.05,0,0)" xlink:href="#w"/><use transform="matrix(0.05,0,0,0.05,12,0)" xlink:href="#h"/><use transform="matrix(0.05,0,0,0.05,17.95,0)" xlink:href="#i"/><use transform="matrix(0.05,0,0,0.05,27.950000000000003,0)" xlink:href="#x"/><use transform="matrix(0.05,0,0,0.05,36.95,0)" xlink:href="#y"/><use transform="matrix(0.05,0,0,0.05,48.95,0)" xlink:href="#r"/><use transform="matrix(0.05,0,0,0.05,57.95,0)" xlink:href="#i"/><use transform="matrix(0.05,0,0,0.05,67.95,0)" xlink:href="#z"/></g><path d="M210-169c-67 3-38 105-44 169h-31v-121c0-29-5-50-35-48C34-165 62-65 56 0H25l-1-190h30c1 10-1 24 2 32 10-44 99-50 107 0 11-21 27-35 58-36 85-2 47 119 55 194h-31v-121c0-29-5-49-35-48" id="A"/><path d="M59-47c-2 24 18 29 38 22v24C64 9 27 4 27-40v-127H5v-23h24l9-43h21v43h35v23H59v120" id="B"/><g id="f"><use transform="matrix(0.05,0,0,0.05,0,0)" xlink:href="#t"/><use transform="matrix(0.05,0,0,0.05,12,0)" xlink:href="#h"/><use transform="matrix(0.05,0,0,0.05,17.95,0)" xlink:href="#q"/><use transform="matrix(0.05,0,0,0.05,27.950000000000003,0)" xlink:href="#A"/><use transform="matrix(0.05,0,0,0.05,42.9,0)" xlink:href="#q"/><use transform="matrix(0.05,0,0,0.05,52.900000000000006,0)" xlink:href="#B"/><use transform="matrix(0.05,0,0,0.05,57.900000000000006,0)" xlink:href="#l"/><use transform="matrix(0.05,0,0,0.05,67.9,0)" xlink:href="#m"/><use transform="matrix(0.05,0,0,0.05,79.9,0)" xlink:href="#n"/><use transform="matrix(0.05,0,0,0.05,89.9,0)" xlink:href="#o"/><use transform="matrix(0.05,0,0,0.05,93.85000000000001,0)" xlink:href="#k"/><use transform="matrix(0.05,0,0,0.05,97.80000000000001,0)" xlink:href="#j"/></g></defs></g></svg>